HIERARCHY
ROOT Hips
{
 OFFSET 0.000000 0.000000 0.000000
 CHANNELS 6 Xposition Yposition Zposition Yrotation Xrotation Zrotation
 JOINT Chest
 {
  OFFSET 0.000000 10.354800 0.006500
  CHANNELS 3 Yrotation Xrotation Zrotation
  JOINT Chest2
  {
   OFFSET 0.000000 10.435800 -0.013200
   CHANNELS 3 Yrotation Xrotation Zrotation
   JOINT Chest3
   {
    OFFSET 0.000000 10.393700 0.000000
    CHANNELS 3 Yrotation Xrotation Zrotation
    JOINT Chest4
    {
     OFFSET 0.000000 10.383100 0.000000
     CHANNELS 3 Yrotation Xrotation Zrotation
     JOINT Neck
     {
      OFFSET 0.000000 15.694000 0.000000
      CHANNELS 3 Yrotation Xrotation Zrotation
      JOINT Head
      {
       OFFSET 0.000000 9.711000 -0.028000
       CHANNELS 3 Yrotation Xrotation Zrotation
       End Site
       {
        OFFSET 0.000000 18.578700 -0.014800
       }
      }
     }
     JOINT RightCollar
     {
      OFFSET -3.157200 10.367500 0.000000
      CHANNELS 3 Yrotation Xrotation Zrotation
      JOINT RightShoulder
      {
       OFFSET -14.482500 0.000000 0.000000
       CHANNELS 3 Yrotation Xrotation Zrotation
       JOINT RightElbow
       {
        OFFSET 0.000000 -31.707800 0.000000
        CHANNELS 3 Yrotation Xrotation Zrotation
        JOINT RightWrist
        {
         OFFSET 0.000000 -25.659300 0.000000
         CHANNELS 3 Yrotation Xrotation Zrotation
         End Site
         {
          OFFSET 0.000000 -18.994300 0.000000
         }
        }
       }
      }
     }
     JOINT LeftCollar
     {
      OFFSET 3.157200 10.367500 0.000000
      CHANNELS 3 Yrotation Xrotation Zrotation
      JOINT LeftShoulder
      {
       OFFSET 14.482500 0.000000 0.000000
       CHANNELS 3 Yrotation Xrotation Zrotation
       JOINT LeftElbow
       {
        OFFSET 0.000000 -31.707800 0.000000
        CHANNELS 3 Yrotation Xrotation Zrotation
        JOINT LeftWrist
        {
         OFFSET 0.000000 -25.659300 0.000000
         CHANNELS 3 Yrotation Xrotation Zrotation
         End Site
         {
          OFFSET 0.000000 -18.994300 0.000000
         }
        }
       }
      }
     }
    }
   }
  }
 }
 JOINT RightHip
 {
  OFFSET -8.365600 -0.032100 -0.003200
  CHANNELS 3 Yrotation Xrotation Zrotation
  JOINT RightKnee
  {
   OFFSET 0.000000 -43.980000 0.003100
   CHANNELS 3 Yrotation Xrotation Zrotation
   JOINT RightAnkle
   {
    OFFSET 0.000000 -42.882800 0.005200
    CHANNELS 3 Yrotation Xrotation Zrotation
    JOINT RightToe
    {
     OFFSET 0.000000 -4.915500 10.826300
     CHANNELS 3 Yrotation Xrotation Zrotation
     End Site
     {
      OFFSET 0.000000 -1.517500 6.175900
     }
    }
   }
  }
 }
 JOINT LeftHip
 {
  OFFSET 8.365600 -0.032100 -0.003200
  CHANNELS 3 Yrotation Xrotation Zrotation
  JOINT LeftKnee
  {
   OFFSET 0.000000 -43.980000 0.003100
   CHANNELS 3 Yrotation Xrotation Zrotation
   JOINT LeftAnkle
   {
    OFFSET 0.000000 -42.882800 0.005200
    CHANNELS 3 Yrotation Xrotation Zrotation
    JOINT LeftToe
    {
     OFFSET 0.000000 -4.915500 10.826300
     CHANNELS 3 Yrotation Xrotation Zrotation
     End Site
     {
      OFFSET 0.000000 -1.517500 6.175900
     }
    }
   }
  }
 }
}
MOTION
Frames: 16
Frame Time: 0.008333
0.000000 91.618600 0.000000 0.000000 -5.767877 0.000000 0.000000 11.653817 0.000000 0.000000 -5.885947 0.000000 0.000000 -0.000000 0.000000 0.000000 -0.000000 0.000000 0.000000 12.528835 0.000000 0.000000 0.711642 0.000000 0.000000 -0.000000 0.000000 0.000000 0.000000 -90.000000 0.000000 -2.309062 0.000000 0.000000 2.309062 0.000000 0.000000 -0.000000 0.000000 0.000000 -0.000000 90.000000 0.000000 -2.309062 0.000000 0.000000 2.309062 0.000000 0.000000 8.520406 0.000000 0.000000 1.905762 0.000000 -0.000000 -4.658285 0.000000 0.000000 -0.000000 0.000000 0.000000 8.520406 0.000000 0.000000 1.905762 0.000000 -0.000000 -4.658285 0.000000 0.000000 -0.000000 0.000000
-1.443579 127.419150 42.006605 171.363086 -41.841260 -4.015358 3.098437 24.736330 0.958839 0.451712 3.893116 0.058029 0.725505 6.229362 0.106214 2.511831 20.533940 0.689792 1.757651 20.752744 -6.930028 3.519170 -3.324489 -7.972010 5.171931 8.470550 -3.473767 2.724128 -10.325901 3.211751 -74.763276 -60.733979 81.663142 -23.318761 -11.139554 -29.910181 -3.824601 10.769177 -0.661125 12.923313 -10.962841 -3.857995 53.398634 -39.619156 -63.872495 23.954459 -2.281779 24.670748 2.602317 -40.037141 3.754645 -93.816250 78.270696 -88.028231 4.732344 3.938494 -17.864636 -0.002992 0.004700 -0.001359 -11.753154 -39.758193 0.057501 108.008968 86.485965 100.446936 -5.831754 -22.699401 0.419902 0.004078 0.002308 0.001852
-1.442594 127.419625 42.007343 171.355528 -41.852678 -4.018570 3.106762 24.744274 0.968091 0.451440 3.894784 0.059440 0.723567 6.232350 0.108662 2.513169 20.534021 0.686169 1.703381 20.738812 -6.946140 3.465095 -3.345217 -7.976304 5.151686 8.469130 -3.480595 2.719097 -10.295865 3.238468 -74.690960 -61.039823 81.548521 -23.219420 -11.068334 -29.870254 -3.812477 10.765974 -0.671377 12.884941 -10.897815 -3.908940 53.345682 -39.659456 -63.848961 23.934021 -2.253946 24.730147 2.596458 -40.024793 3.754350 -93.818798 78.287407 -88.008005 4.791334 3.941790 -17.903891 0.005700 0.000424 0.002588 -11.745882 -39.745409 0.044041 108.047527 86.476834 100.501993 -5.819432 -22.702248 0.414577 0.004012 0.003143 0.001822
-1.442566 127.421094 42.006866 171.351881 -41.874636 -4.017811 3.110585 24.762842 0.969681 0.449899 3.894181 0.058586 0.722749 6.234144 0.105701 2.515082 20.540464 0.689486 1.644126 20.718122 -6.964110 3.401812 -3.366907 -7.978526 5.150972 8.463100 -3.484303 2.699241 -10.265878 3.262182 -74.614996 -61.333731 81.429195 -23.127476 -11.006969 -29.843196 -3.796946 10.756607 -0.681416 12.846121 -10.835116 -3.953446 53.307145 -39.680117 -63.834941 23.909578 -2.231017 24.793546 2.595266 -40.002097 3.755915 -93.832993 78.290325 -88.004958 4.753158 3.939665 -17.914855 0.001014 0.001574 0.000460 -11.740674 -39.721306 0.025527 108.133988 86.474257 100.598611 -5.814857 -22.714546 0.411036 0.003711 0.002455 0.001685
-1.443399 127.421059 42.008013 171.349754 -41.886095 -4.013960 3.108689 24.766096 0.960929 0.450944 3.896390 0.059114 0.725216 6.239491 0.109485 2.513042 20.537056 0.683575 1.577723 20.699987 -6.977221 3.332092 -3.388547 -7.978916 5.150671 8.464496 -3.481167 2.664913 -10.227526 3.287107 -74.533852 -61.616852 81.326602 -23.043273 -10.956177 -29.832898 -3.783231 10.749569 -0.685982 12.807435 -10.769592 -3.994448 53.280783 -39.677701 -63.831130 23.892878 -2.226267 24.846508 2.595392 -39.990382 3.754170 -93.850419 78.289644 -88.008958 4.706080 3.935411 -17.919509 -0.007038 0.005128 -0.003196 -11.734677 -39.708085 0.004966 108.264562 86.479016 100.736987 -5.798986 -22.734578 0.409659 0.003704 0.002281 0.001682
-1.444063 127.421331 42.008929 171.344818 -41.901569 -4.007958 3.103695 24.759793 0.948197 0.450637 3.893929 0.056618 0.729995 6.256859 0.114290 2.512905 20.531728 0.679140 1.505977 20.683682 -6.991011 3.256700 -3.409471 -7.976248 5.147796 8.465208 -3.482607 2.653221 -10.209654 3.297347 -74.427338 -61.856928 81.183855 -22.966888 -10.917631 -29.841965 -3.770254 10.743660 -0.690120 12.768903 -10.701247 -4.035134 53.268431 -39.645362 -63.836075 23.887240 -2.248916 24.873362 2.595207 -39.974219 3.749524 -93.879992 78.293308 -88.027817 4.693756 3.928676 -17.928361 -0.014840 0.008214 -0.006739 -11.724765 -39.692643 -0.017943 108.339514 86.474448 100.816870 -5.779489 -22.747071 0.406418 0.002952 0.001053 0.001340
-1.441968 127.421393 42.010897 171.342475 -41.914362 -4.018628 3.109805 24.755723 0.955940 0.450535 3.893735 0.055765 0.729086 6.258408 0.115754 2.511264 20.529712 0.671556 1.430178 20.667780 -7.002359 3.176283 -3.430295 -7.969836 5.148479 8.465108 -3.478711 2.645345 -10.196019 3.298545 -74.307641 -62.064831 81.036382 -22.901836 -10.898322 -29.873904 -3.758856 10.738529 -0.692695 12.729248 -10.634257 -4.075193 53.272287 -39.577160 -63.848463 23.888574 -2.305150 24.859443 2.577370 -39.954964 3.755491 -93.894244 78.306266 -88.042060 4.935018 3.921272 -17.981768 0.000494 0.002382 0.000224 -11.732289 -39.678889 -0.019642 108.473780 86.468300 100.956498 -5.761701 -22.760727 0.401872 -0.000015 -0.000206 -0.000007
-1.431467 127.421153 42.015426 171.329977 -41.921695 -4.069870 3.146095 24.739030 1.013665 0.451107 3.896969 0.056385 0.726880 6.258850 0.114841 2.510983 20.526272 0.664335 1.351755 20.651951 -7.010564 3.092229 -3.451396 -7.959211 5.151665 8.457990 -3.475769 2.643003 -10.176698 3.301957 -74.189269 -62.247050 80.900089 -22.847798 -10.899499 -29.930666 -3.749210 10.747052 -0.686621 12.692866 -10.580812 -4.123916 53.288393 -39.474768 -63.869776 23.895213 -2.396467 24.793031 2.534801 -39.946977 3.819157 -93.919254 78.317968 -88.075779 5.354179 3.924844 -18.079240 0.062862 -0.026681 0.028530 -11.773694 -39.660637 0.051142 108.678218 86.467262 101.163774 -5.737431 -22.784942 0.403659 -0.002210 0.000198 -0.001004
-1.432624 127.421727 42.016041 171.339940 -41.939142 -4.068414 3.137181 24.749611 1.002995 0.450233 3.888626 0.050973 0.726136 6.255931 0.114432 2.512692 20.529407 0.661149 1.267226 20.630251 -7.020075 3.005755 -3.473479 -7.944456 5.150583 8.446109 -3.476186 2.647424 -10.153773 3.312161 -74.088863 -62.409923 80.787673 -22.802548 -10.908791 -30.004468 -3.742976 10.751148 -0.683182 12.659992 -10.532580 -4.169664 53.306774 -39.341383 -63.897423 23.905020 -2.527925 24.662665 2.523178 -39.925056 3.813086 -93.951907 78.317012 -88.109702 5.350603 3.915556 -18.084004 0.057492 -0.026448 0.026093 -11.772746 -39.643170 0.031585 108.734882 86.476525 101.218976 -5.722982 -22.786407 0.404504 0.000477 -0.002809 0.000217
-1.438636 127.421817 42.015993 171.348816 -41.953911 -4.039007 3.116792 24.759263 0.962104 0.448616 3.888315 0.049603 0.728171 6.245403 0.108987 2.515215 20.542038 0.668521 1.198215 20.606563 -7.031659 2.895100 -3.503567 -7.924599 5.144598 8.419544 -3.482575 2.656844 -10.138432 3.299339 -73.994186 -62.522026 80.681918 -22.767712 -10.919580 -30.083535 -3.745903 10.723690 -0.701365 12.638495 -10.480045 -4.181310 53.316813 -39.167967 -63.930498 23.915629 -2.701655 24.458986 2.539907 -39.907717 3.776989 -94.003647 78.302993 -88.153295 5.166524 3.897521 -18.043799 0.015594 -0.007148 0.007079 -11.750059 -39.634727 -0.020087 108.817035 86.489149 101.303680 -5.742881 -22.785891 0.413156 0.001821 -0.004272 0.000827
-1.440107 127.421468 42.017715 171.353346 -41.962119 -4.033449 3.105831 24.755522 0.941538 0.450707 3.893578 0.053900 0.724858 6.235022 0.101282 2.513539 20.537883 0.661344 1.192277 20.617818 -7.018390 2.738470 -3.548229 -7.898448 5.152538 8.406383 -3.476541 2.677031 -10.121808 3.282399 -73.930273 -62.604328 80.604386 -22.744362 -10.931552 -30.163510 -3.731619 10.712660 -0.709039 12.612976 -10.427222 -4.201921 53.323318 -38.998640 -63.961166 23.928022 -2.906671 24.184577 2.539572 -39.895945 3.770078 -94.042183 78.290845 -88.188858 5.028643 3.885098 -18.024103 0.006505 -0.001984 0.002953 -11.751680 -39.626100 -0.038671 108.774533 86.490871 101.255072 -5.717257 -22.780920 0.421865 0.003168 -0.003987 0.001438
-1.441422 127.421001 42.019677 171.360011 -41.968191 -4.031099 3.099162 24.746599 0.926042 0.450739 3.891224 0.052634 0.721406 6.213843 0.087860 2.521301 20.550430 0.667137 1.040715 20.569770 -7.035113 2.725771 -3.546969 -7.886374 5.153159 8.398745 -3.471948 2.692023 -10.116776 3.267141 -73.863791 -62.658382 80.535121 -22.731280 -10.937261 -30.238310 -3.723811 10.708299 -0.717964 12.581632 -10.376734 -4.228083 53.332714 -38.844854 -63.990930 23.946183 -3.130342 23.856305 2.540265 -39.887905 3.755007 -94.088368 78.288623 -88.231839 4.919081 3.876517 -18.004046 -0.001837 0.000349 -0.000834 -11.756019 -39.623384 -0.053602 108.728104 86.494132 101.204709 -5.702811 -22.752923 0.460063 0.006177 -0.003209 0.002804
-1.442271 127.420723 42.021585 171.368258 -41.974804 -4.033322 3.090136 24.725013 0.901737 0.450415 3.901115 0.060919 0.721088 6.203257 0.080646 2.507274 20.521783 0.638093 0.967999 20.571478 -7.015741 2.673160 -3.559879 -7.867987 5.167353 8.421854 -3.437200 2.705896 -10.118092 3.247592 -73.793194 -62.688914 80.478047 -22.755030 -10.941328 -30.281379 -3.708921 10.712563 -0.734047 12.568047 -10.321772 -4.195220 53.335529 -38.674934 -64.026898 23.975489 -3.361562 23.495072 2.537893 -39.879173 3.751639 -94.108192 78.284795 -88.249692 4.809692 3.872435 -17.985653 -0.005100 0.000061 -0.002316 -11.759147 -39.616079 -0.069248 108.682383 86.507255 101.158541 -5.676483 -22.746310 0.466076 0.005138 -0.003664 0.002333
-1.444745 127.420570 42.022938 171.372641 -41.982839 -4.024791 3.082435 24.729529 0.886483 0.450508 3.867684 0.037372 0.722746 6.229109 0.099925 2.505339 20.519139 0.633183 0.895606 20.543014 -7.023521 2.604140 -3.581667 -7.845536 5.161374 8.382654 -3.454317 2.717455 -10.102978 3.244637 -73.736344 -62.694801 80.435704 -22.763469 -10.940934 -30.324327 -3.710006 10.696407 -0.754188 12.564057 -10.294692 -4.168617 53.322396 -38.503994 -64.064407 24.020758 -3.587630 23.120363 2.543441 -39.869850 3.743267 -94.127331 78.278822 -88.266910 4.662350 3.868462 -17.960814 -0.010338 0.001745 -0.004694 -11.764128 -39.602978 -0.086023 108.519928 86.515386 100.985611 -5.699511 -22.733888 0.513130 0.002578 0.000888 0.001170
-1.446904 127.419995 42.024852 171.374712 -41.986877 -4.018213 3.079794 24.718635 0.869146 0.448971 3.867451 0.032350 0.723422 6.233596 0.107309 2.502841 20.516708 0.627428 0.866516 20.535498 -7.020431 2.506417 -3.619748 -7.820289 5.161756 8.357012 -3.467406 2.738355 -10.101775 3.231890 -73.720743 -62.677388 80.420728 -22.751865 -10.920299 -30.360774 -3.706490 10.694320 -0.758400 12.536487 -10.266884 -4.185999 53.315615 -38.386921 -64.091863 24.077557 -3.802554 22.754732 2.547113 -39.865923 3.739758 -94.154951 78.272617 -88.295473 4.553289 3.863776 -17.937648 -0.015947 0.004271 -0.007241 -11.767277 -39.597842 -0.097518 108.553022 86.539190 101.007746 -5.694728 -22.724305 0.578830 0.001879 0.002900 0.000853
-1.448192 127.419920 42.026406 171.382397 -41.994079 -4.021148 3.074370 24.704877 0.841978 0.449403 3.875553 0.039829 0.724389 6.227002 0.108099 2.499006 20.512435 0.616344 0.849400 20.538453 -7.001725 2.424211 -3.658730 -7.797697 5.174038 8.362589 -3.450675 2.755776 -10.128286 3.200698 -73.713775 -62.641711 80.416758 -22.765106 -10.886892 -30.343638 -3.695455 10.702001 -0.748427 12.475164 -10.234968 -4.231270 53.327948 -38.321676 -64.104814 24.133916 -4.000092 22.416201 2.542973 -39.858353 3.738280 -94.192697 78.272463 -88.336234 4.566045 3.859151 -17.935544 -0.014608 0.002840 -0.006633 -11.773923 -39.590137 -0.102619 108.677726 86.568516 101.121612 -5.680079 -22.718561 0.650770 0.001608 0.004164 0.000730
